<svg width="30" height="34" viewBox="0 0 30 34" fill="none" xmlns="http://www.w3.org/2000/svg">
<path fill-rule="evenodd" clip-rule="evenodd" d="M0 25.1166V12.4283H30V25.2183C30 30.45 26.7069 33.6666 21.438 33.6666H8.54555C3.32602 33.6666 0 30.3833 0 25.1166ZM8.26564 21.0166C7.50823 21.0516 6.88255 20.45 6.84962 19.685C6.84962 18.9183 7.44237 18.285 8.19978 18.25C8.94072 18.25 9.54995 18.835 9.56641 19.5833C9.59934 20.3516 9.00659 20.985 8.26564 21.0166ZM15.0329 21.0166C14.2755 21.0516 13.6498 20.45 13.6169 19.685C13.6169 18.9183 14.2097 18.285 14.9671 18.25C15.708 18.25 16.3172 18.835 16.3337 19.5833C16.3666 20.3516 15.7739 20.985 15.0329 21.0166ZM21.7508 27.15C20.9934 27.1333 20.3842 26.5 20.3842 25.7333C20.3677 24.9666 20.9769 24.3349 21.7344 24.3183H21.7508C22.5247 24.3183 23.1504 24.9516 23.1504 25.7333C23.1504 26.5166 22.5247 27.15 21.7508 27.15ZM13.6169 25.7333C13.6498 26.4999 14.2755 27.1016 15.0329 27.0666C15.7739 27.0349 16.3666 26.4016 16.3337 25.6349C16.3172 24.8849 15.708 24.2999 14.9671 24.2999C14.2097 24.3349 13.6169 24.9666 13.6169 25.7333ZM6.83315 25.7333C6.86608 26.4999 7.49177 27.1016 8.24918 27.0666C8.99012 27.0349 9.58288 26.4016 9.54995 25.6349C9.53348 24.8849 8.92426 24.2999 8.18332 24.2999C7.42591 24.3349 6.83315 24.9666 6.83315 25.7333ZM20.4007 19.6683C20.4007 18.9016 20.9934 18.285 21.7508 18.2683C22.4918 18.2683 23.0845 18.8666 23.1175 19.6016C23.1339 20.3683 22.5412 21.0016 21.8002 21.0166C21.0428 21.0333 20.4171 20.45 20.4007 19.685V19.6683Z" fill="#4D77FF"/>
<path opacity="0.4" d="M0.00561523 12.4281C0.0270203 11.4498 0.109347 9.50813 0.264122 8.88313C1.05446 5.36813 3.73833 3.1348 7.57477 2.81647H22.4266C26.2301 3.15147 28.9469 5.3998 29.7372 8.88313C29.8904 9.49147 29.9727 11.4481 29.9941 12.4281H0.00561523Z" fill="#4D77FF"/>
<path d="M8.84145 7.98331C9.56592 7.98331 10.1093 7.43498 10.1093 6.69998V1.61831C10.1093 0.883313 9.56592 0.333313 8.84145 0.333313C8.11697 0.333313 7.57361 0.883313 7.57361 1.61831V6.69998C7.57361 7.43498 8.11697 7.98331 8.84145 7.98331Z" fill="#4D77FF"/>
<path d="M21.1582 7.98331C21.8662 7.98331 22.4261 7.43498 22.4261 6.69998V1.61831C22.4261 0.883313 21.8662 0.333313 21.1582 0.333313C20.4337 0.333313 19.8904 0.883313 19.8904 1.61831V6.69998C19.8904 7.43498 20.4337 7.98331 21.1582 7.98331Z" fill="#4D77FF"/>
</svg>
